<svg xmlns="http://www.w3.org/2000/svg" version="1.1" xmlns:xlink="http://www.w3.org/1999/xlink" width="1500" height="95" viewBox="0 0 1500 95"><svg xml:space="preserve" width="400" height="70" data-version="2" data-id="lg_fSHM3Py8L56fhh3dXP" viewBox="0 0 563 95" x="0" y="0"><rect width="100%" height="100%" fill="transparent"></rect><path fill="#4962bf" d="M58.445 8.055q3.38 4.74 6.92 12.21 3.54 7.48 6.86 16.4 3.32 8.92 6 18.24 2.68 9.32 4.4 17.94 1.72 8.61 1.97 15.32.06 3.26-2.96 3.26h-14.88q-2.9 0-3.02-2.9-.25-6.89-2.21-16.73h-33.6q-1.72 9.6-1.96 16.73-.13 2.9-3.14 2.9H8.245q-1.11 0-1.85-.65t-.68-2.25q.31-6.82 2-15.53 1.7-8.71 4.4-18.06 2.71-9.35 6.03-18.3 3.32-8.95 6.89-16.4 3.57-7.44 6.95-12.18 1.79-2.52 3.79-3.69t4.95-1.17h8.86q3.02 0 5.05 1.17t3.81 3.69m-13.9 14.58q-4.06 6.46-7.45 15.45-3.38 8.98-5.84 18.45h26.7q-2.59-9.47-5.97-18.45-3.38-8.99-7.08-15.45Z"></path><rect width="78.92" height="88.23" x="-39.46" y="-44.12" fill="none" rx="0" ry="0" transform="translate(45.65 47.81)"></rect><path fill="#4962bf" d="M118.925 88.165q0 1.84-.77 2.55-.77.71-2.62.71h-13.1q-1.85 0-2.62-.71-.76-.71-.76-2.55v-68.48q0-6.15 1.13-9.75 1.14-3.6 4.43-5.17 3.29-1.57 9.63-1.57h16.31q32.11 0 32.11 24.67 0 7.51-2.52 12.31-2.52 4.8-6.28 7.47-3.75 2.68-7.38 4.03v.31q4.12 2.71 7.84 7.11 3.73 4.39 6.74 9.53 3.02 5.14 5.11 10.15 2.09 5.02 2.89 8.96.37 1.84.03 2.76-.34.93-2.12.93h-14.21q-1.6 0-2.8-.68-1.2-.68-2.19-3.14-4.67-11.75-10.76-19.16-6.1-7.42-11.76-11.91-3.63-2.89-3.63-4.12 0-.98 1.17-2.71.74-1.04 2.16-2.52 1.41-1.48 2.46-2.21 1.04-.74 1.69-.93.65-.18 2-.18 4.55 0 7.6-3.14 3.04-3.14 3.04-9.9 0-6.4-3.23-9.39-3.23-2.98-8.89-2.98h-3.69q-4.06 0-5.54 1.72-1.47 1.72-1.47 5.91Z"></path><rect width="70.29" height="88.23" x="-35.15" y="-44.12" fill="none" rx="0" ry="0" transform="translate(134.7 47.81)"></rect><path fill="#4962bf" d="M217.665 76.345q4.49 0 7.05-.92 2.55-.92 3.97-2.28 1.41-1.35 2.46-2.7.98-1.23 1.63-1.85.64-.61 1.81-.86.99-.31 3.17-.4 2.18-.09 4.37-.09 2.18 0 3.04.12 1.3.06 1.79.49t.61 1.85q.19 1.97.22 4.67.03 2.71-.09 4.68-.07.62-.22 1.05-.15.43-.65 1.29-.61.98-2.39 2.86-1.79 1.88-5.23 3.87-3.45 2-8.89 3.42-5.45 1.41-13.39 1.41-8.49 0-15.87-2.18-7.38-2.18-12.95-7.35-5.57-5.17-8.67-13.97-3.11-8.8-3.11-21.96 0-14.64 5.07-24.89 5.08-10.24 14.43-15.59 9.35-5.36 22.15-5.36 8.98 0 14.43 1.85 5.44 1.85 8.27 4.34 2.83 2.49 4 4.33.43.68.62 1.2.18.53.24 1.63.19 1.48.09 4.31-.09 2.83-.46 4.98-.24 1.36-.8 1.79-.24.24-.86.43-.61.18-1.84.18-1.97 0-4.43-.15t-3.69-.34q-1.48-.24-2.16-.71-.67-.46-1.35-1.44-1.11-1.6-3.82-3.69-2.7-2.09-8.92-2.09-8.73 0-14.39 6.73-5.66 6.74-5.66 21.81 0 15.01 5.93 22.27 5.94 7.26 14.49 7.26"></path><rect width="71.48" height="91.3" x="-35.74" y="-45.65" fill="none" rx="0" ry="0" transform="translate(212.56 47.8)"></rect><path fill="#4962bf" d="M308.845 8.055q3.38 4.74 6.92 12.21 3.54 7.48 6.86 16.4 3.32 8.92 6 18.24 2.68 9.32 4.4 17.94 1.72 8.61 1.97 15.32.06 3.26-2.96 3.26h-14.88q-2.9 0-3.02-2.9-.24-6.89-2.21-16.73h-33.6q-1.72 9.6-1.96 16.73-.13 2.9-3.14 2.9h-14.58q-1.11 0-1.85-.65t-.68-2.25q.31-6.82 2-15.53 1.7-8.71 4.4-18.06 2.71-9.35 6.03-18.3 3.32-8.95 6.89-16.4 3.57-7.44 6.96-12.18 1.78-2.52 3.78-3.69 2-1.17 4.95-1.17h8.86q3.02 0 5.05 1.17t3.81 3.69m-13.9 14.58q-4.06 6.46-7.45 15.45-3.38 8.98-5.84 18.45h26.7q-2.59-9.47-5.97-18.45-3.38-8.99-7.07-15.45Z"></path><rect width="78.92" height="88.23" x="-39.46" y="-44.12" fill="none" rx="0" ry="0" transform="translate(296.05 47.81)"></rect><path fill="#4962bf" d="M364.645 91.425q-6.33 0-9.63-1.6-3.29-1.6-4.43-5.23-1.13-3.63-1.13-9.66v-55.25q0-6.15 1.13-9.75 1.14-3.6 4.43-5.17 3.3-1.57 9.63-1.57h18.89q13.23 0 23.16 3.94 9.94 3.94 15.48 13.32 5.53 9.38 5.53 25.75 0 16.36-5.53 26.3-5.54 9.93-15.48 14.43-9.93 4.49-23.16 4.49Zm11.69-72.05q-4.06 0-5.54 1.73-1.47 1.72-1.47 5.9v40.61q0 4.12 1.47 5.9 1.48 1.79 5.54 1.79h2.83q13.17 0 20.4-6.46 7.23-6.46 7.23-22.4 0-10.64-3.3-16.52-3.29-5.87-9.5-8.21-6.22-2.34-14.95-2.34Z"></path><rect width="78.25" height="88.23" x="-39.13" y="-44.12" fill="none" rx="0" ry="0" transform="translate(389.08 47.81)"></rect><path fill="#4962bf" d="M462.965 88.165q0 1.84-.77 2.55-.77.71-2.62.71h-13.1q-1.85 0-2.62-.71t-.77-2.55v-75.12q0-1.79.62-2.71 2.77-4.06 7.75-8.55.92-.74 1.6-.74.74 0 1.54.74 2.71 2.33 4.55 4.46 1.85 2.12 3.2 4.09.62.98.62 2.71Z"></path><rect width="19.88" height="90.38" x="-9.94" y="-45.19" fill="none" rx="0" ry="0" transform="translate(453.52 46.73)"></rect><path fill="#4962bf" d="M530.145 8.055q3.38 4.74 6.92 12.21 3.54 7.48 6.86 16.4 3.32 8.92 6 18.24 2.68 9.32 4.4 17.94 1.72 8.61 1.97 15.32.06 3.26-2.96 3.26h-14.88q-2.9 0-3.02-2.9-.25-6.89-2.21-16.73h-33.6q-1.72 9.6-1.96 16.73-.13 2.9-3.14 2.9h-14.58q-1.11 0-1.85-.65t-.68-2.25q.31-6.82 2-15.53 1.7-8.71 4.4-18.06 2.71-9.35 6.03-18.3 3.32-8.95 6.89-16.4 3.57-7.44 6.95-12.18 1.79-2.52 3.79-3.69t4.95-1.17h8.86q3.02 0 5.05 1.17t3.81 3.69m-13.9 14.58q-4.06 6.46-7.45 15.45-3.38 8.98-5.84 18.45h26.7q-2.59-9.47-5.97-18.45-3.38-8.99-7.08-15.45Z"></path><rect width="78.92" height="88.23" x="-39.46" y="-44.12" fill="none" rx="0" ry="0" transform="translate(517.35 47.81)"></rect></svg></svg>